<svg width="25" height="41" viewBox="0 0 25 41" fill="none" xmlns="http://www.w3.org/2000/svg">
	<path d="M24.1637 27.035C24.1655 27.0063 24.1655 26.9776 24.1637 26.949C24.1637 26.949 24.1637 26.933 24.1637 26.925L22.7959 10.7279C22.7924 10.7096 22.7878 10.6916 22.7819 10.6739C22.7819 10.6439 22.7679 10.6179 22.7579 10.5899C22.7457 10.5635 22.7303 10.5386 22.7119 10.5159C22.6984 10.4958 22.6837 10.4764 22.668 10.458C22.6437 10.4347 22.616 10.4151 22.586 10.4C22.5749 10.3896 22.5628 10.3802 22.55 10.372H22.53C22.5009 10.3614 22.4707 10.354 22.44 10.35C22.4134 10.3469 22.3866 10.3469 22.36 10.35H22.338C22.3203 10.3541 22.303 10.3595 22.286 10.366C22.2569 10.3704 22.2286 10.3791 22.202 10.392C22.1776 10.4028 22.1547 10.417 22.1341 10.434C22.1111 10.4484 22.0896 10.4652 22.0701 10.484C22.0505 10.5058 22.0337 10.53 22.0201 10.5559C22.0083 10.5705 21.9976 10.5858 21.9881 10.6019L16.889 21.9379L16.875 21.9739C16.7313 22.359 16.4826 22.6961 16.1571 22.947C15.8316 23.198 15.4423 23.3527 15.0333 23.3936C14.7522 23.4144 14.4697 23.3787 14.2026 23.2887C13.9354 23.1987 13.6889 23.0563 13.4776 22.8697C13.0148 22.4747 12.7272 21.9125 12.6778 21.306L12.5278 19.5223L11.16 3.32524C11.1283 2.91149 11.0152 2.50807 10.8271 2.13815C10.6391 1.76823 10.3798 1.4391 10.0642 1.16963C9.76524 0.912526 9.41786 0.717807 9.04252 0.596928C8.66718 0.476049 8.27145 0.431451 7.87862 0.465759C7.31246 0.519588 6.77283 0.731491 6.32132 1.07728C5.86981 1.42308 5.52459 1.88884 5.32508 2.42141L0.216001 13.7514C0.216001 13.7514 0.216001 13.7674 0.216001 13.7754C0.207228 13.8015 0.200542 13.8282 0.196004 13.8553C0.188983 13.887 0.184304 13.919 0.182007 13.9513C0.182007 13.9513 0.182007 13.9653 0.182007 13.9753L1.54976 30.1724C1.5539 30.192 1.55924 30.2114 1.56576 30.2304C1.5703 30.2562 1.57699 30.2816 1.58575 30.3064C1.59796 30.3328 1.61341 30.3577 1.63175 30.3804C1.6446 30.4005 1.65862 30.4199 1.67374 30.4384C1.69821 30.4605 1.72503 30.48 1.75372 30.4963C1.76685 30.5081 1.78089 30.5188 1.79572 30.5283H1.80771C1.83851 30.5405 1.87078 30.5486 1.9037 30.5523C1.92569 30.5523 1.94569 30.5643 1.96768 30.5643H2.00768C2.02488 30.5619 2.04168 30.5571 2.05767 30.5503C2.08781 30.5447 2.1173 30.536 2.14565 30.5243C2.16834 30.5122 2.19037 30.4988 2.21164 30.4843C2.23434 30.468 2.25573 30.45 2.27563 30.4304C2.29499 30.4091 2.31177 30.3856 2.32562 30.3604C2.33741 30.3459 2.34811 30.3305 2.35761 30.3144L7.4567 18.9784L7.47869 18.9504C7.62192 18.5653 7.87017 18.2279 8.19533 17.9766C8.52048 17.7253 8.90952 17.5702 9.31836 17.5287C9.59861 17.5051 9.88075 17.5373 10.1485 17.6235C10.4162 17.7096 10.6642 17.848 10.8781 18.0306C11.341 18.4247 11.6286 18.9864 11.6779 19.5923L12.7397 32.19L13.1937 37.5891C13.2588 38.4223 13.6522 39.1955 14.2875 39.7387C14.8241 40.1996 15.5078 40.4535 16.2151 40.4545C16.3031 40.4545 16.3931 40.4545 16.4831 40.4425C17.0493 40.387 17.5886 40.174 18.0399 39.8276C18.4912 39.4813 18.8365 39.0154 19.0366 38.4829L24.1397 27.1489C24.1397 27.1489 24.1397 27.1329 24.1397 27.125C24.1502 27.0957 24.1583 27.0656 24.1637 27.035ZM1.49177 19.4163L6.54486 8.18437L6.55886 8.15237C6.70097 7.76668 6.94896 7.42887 7.27437 7.17775C7.59978 6.92662 7.98941 6.77234 8.39853 6.73263C8.6817 6.70662 8.96721 6.73802 9.23796 6.82495C9.50871 6.91188 9.75913 7.05255 9.97424 7.23854C10.2042 7.43349 10.3932 7.67204 10.5305 7.94042C10.6678 8.20881 10.7506 8.50172 10.7741 8.80226L11.048 12.0457C11.0261 12.0237 11.0041 12.0017 10.9801 11.9817C10.6793 11.7229 10.3296 11.5272 9.95175 11.4063C9.57388 11.2854 9.17556 11.2417 8.78046 11.2778C8.21427 11.3333 7.67496 11.5464 7.22364 11.8927C6.77232 12.2391 6.42703 12.7049 6.22692 13.2375L1.79972 23.0737L1.49177 19.4163ZM13.3136 28.8686C13.3376 28.8886 13.3576 28.9126 13.3816 28.9326C13.9175 29.3934 14.6005 29.6473 15.3073 29.6485C15.3973 29.6485 15.4872 29.6485 15.5772 29.6345C16.1432 29.5808 16.6826 29.3689 17.1338 29.023C17.585 28.6772 17.9298 28.2114 18.1288 27.6789L22.556 17.8346L22.8759 21.49L17.8128 32.7239L17.7988 32.7599C17.6555 33.1454 17.4069 33.4829 17.0814 33.7342C16.7558 33.9855 16.3664 34.1406 15.9572 34.1817C15.6743 34.207 15.3893 34.1752 15.119 34.0883C14.8487 34.0014 14.5986 33.8611 14.3834 33.6758C13.9207 33.2815 13.6331 32.7199 13.5836 32.1141L13.3136 28.8686ZM12.9257 23.5296C13.4618 23.9898 14.1448 24.243 14.8514 24.2435C14.9407 24.2435 15.0307 24.2395 15.1213 24.2315C15.6878 24.1761 16.2274 23.9631 16.6791 23.6168C17.1307 23.2704 17.4764 22.8045 17.6769 22.2718L22.1021 12.4296L22.412 16.0869L17.3569 27.3209L17.3429 27.3569C17.1995 27.7424 16.951 28.0799 16.6254 28.3312C16.2999 28.5825 15.9104 28.7375 15.5012 28.7787C15.2184 28.8039 14.9334 28.7722 14.6631 28.6853C14.3928 28.5984 14.1426 28.4581 13.9275 28.2727C13.4643 27.878 13.1767 27.3156 13.1277 26.709L12.8577 23.4656C12.8777 23.4856 12.9017 23.5096 12.9257 23.5296ZM6.08894 2.77934L6.10294 2.74335C6.24505 2.35765 6.49305 2.01985 6.81845 1.76872C7.14386 1.51759 7.53349 1.36332 7.94261 1.3236C8.22558 1.29835 8.51075 1.32993 8.78135 1.41646C9.05194 1.503 9.30251 1.64275 9.51832 1.82751C9.74816 2.02299 9.93713 2.26192 10.0744 2.53061C10.2116 2.7993 10.2945 3.09244 10.3182 3.39323L10.5921 6.63465L10.5261 6.57266C10.2255 6.31379 9.87577 6.11806 9.49789 5.99714C9.12 5.87622 8.72165 5.83256 8.32654 5.86878C7.76021 5.92386 7.22069 6.1367 6.76929 6.48312C6.31789 6.82953 5.97271 7.29563 5.773 7.82843L1.3438 17.6707L1.03585 14.0133L6.08894 2.77934ZM11.43 17.3767C11.1289 17.1185 10.7791 16.9232 10.4014 16.8023C10.0236 16.6814 9.62543 16.6374 9.23038 16.6728C8.66507 16.7286 8.12661 16.9413 7.67575 17.2868C7.2249 17.6324 6.87961 18.0971 6.67884 18.6285L2.25563 28.4687L1.94769 24.8214L7.00078 13.5874L7.01478 13.5494C7.15689 13.1637 7.40488 12.8259 7.73029 12.5748C8.0557 12.3236 8.44532 12.1694 8.85444 12.1297C9.13755 12.1048 9.42276 12.1367 9.69335 12.2236C9.96394 12.3105 10.2144 12.4505 10.4302 12.6356C10.6599 12.8307 10.8489 13.0692 10.9861 13.3376C11.1234 13.606 11.2063 13.8988 11.23 14.1993L11.498 17.4347C11.478 17.4127 11.454 17.3907 11.43 17.3707V17.3767ZM18.2767 38.121L18.2607 38.157C18.1184 38.5425 17.8704 38.8802 17.545 39.1313C17.2196 39.3824 16.8301 39.5368 16.4211 39.5767C16.1379 39.602 15.8526 39.5703 15.582 39.4834C15.3113 39.3965 15.0608 39.2562 14.8454 39.0708C14.6158 38.8756 14.4269 38.6369 14.2897 38.3686C14.1524 38.1003 14.0694 37.8075 14.0455 37.5071L13.7716 34.2717C13.7956 34.2937 13.8155 34.3157 13.8395 34.3357C14.3754 34.7964 15.0585 35.0503 15.7652 35.0515C15.8545 35.0515 15.9445 35.0475 16.0351 35.0395C16.6011 34.9849 17.1404 34.7725 17.5915 34.4264C18.0426 34.0803 18.3874 33.6144 18.5867 33.0819L23.0139 23.2377L23.3218 26.885L18.2767 38.121Z" fill="url(#paint0_linear_108_308)" />
	<defs>
		<linearGradient id="paint0_linear_108_308" x1="18.294" y1="-5.04034" x2="6.7239" y2="42.9084" gradientUnits="userSpaceOnUse">
			<stop stop-color="#ED5089" />
			<stop offset="1" stop-color="#8565D8" />
		</linearGradient>
	</defs>
</svg>
